PathFileType	4	(X/Y/Z)	Patient4_TMGait_0pt2_02_right_07.trc.trc
DataRate	CameraRate	NumFrames	NumMarkers	Units	OrigDataRate	OrigDataStartFrame	OrigNumFrames
42.296072507553	42.296072507553	6	33	mm	42.296072507553	89	       141
Frame#	Time	R.Midfoot.Superior			Sacral			L.Shoulder			Chest			R.Shoulder			Neck			R.ASIS			L.ASIS			R.Thigh.Superior			R.Thigh.Lateral			R.Thigh.Inferior			R.Patella			L.Thigh.Superior			L.Thigh.Lateral			L.Thigh.Inferior			L.Patella			L.Shank.Superior			L.Shank.Lateral			L.Shank.Inferior			R.Shank.Superior			R.Shank.Lateral			R.Shank.Inferior			R.Heel			R.Midfoot.Lateral			R.Toe			L.Heel			L.Midfoot.Lateral			L.Midfoot.Superior			L.Toe			L.Elbow			L.Wrist			R.Elbow			R.Wrist			
		X1	Y1	Z1	X2	Y2	Z2	X3	Y3	Z3	X4	Y4	Z4	X5	Y5	Z5	X6	Y6	Z6	X7	Y7	Z7	X8	Y8	Z8	X9	Y9	Z9	X10	Y10	Z10	X11	Y11	Z11	X12	Y12	Z12	X13	Y13	Z13	X14	Y14	Z14	X15	Y15	Z15	X16	Y16	Z16	X17	Y17	Z17	X18	Y18	Z18	X19	Y19	Z19	X20	Y20	Z20	X21	Y21	Z21	X22	Y22	Z22	X23	Y23	Z23	X24	Y24	Z24	X25	Y25	Z25	X26	Y26	Z26	X27	Y27	Z27	X28	Y28	Z28	X29	Y29	Z29	X30	Y30	Z30	X31	Y31	Z31	X32	Y32	Z32	X33	Y33	Z33	

89	16.570571428571	814.644615262486	105.278429310058	609.825096230457	821.977815584135	1016.273369612054	502.705045308732	975.373927170346	1429.686391454332	279.284167054174	1109.581636667360	1356.071335732445	413.735826386382	1071.678992255878	1437.496736170475	597.391296342666	991.919782395522	1492.784851245006	433.841676854213	1061.008644886821	930.367486123339	578.611094727240	1004.225252749882	960.235575093922	311.691023844083	1042.854727261636	716.676497794282	555.602671102447	943.460301667978	628.451493598601	632.242363605913	991.386900404938	557.534541883189	547.894781914508	965.879100296595	468.470205485959	559.530384543635	1068.165598124657	761.936694241755	347.687605532680	991.791681936249	633.223263324587	289.866594589380	1086.985533218217	566.534695218326	350.409957436130	1094.587877487281	495.231378371552	357.685846705578	1068.707048461236	422.114850539135	351.580418030302	981.269068128929	305.431357771149	302.799881053005	1036.798318382798	194.696640802831	371.174196275407	908.762217342279	394.688556454033	576.347913212090	813.660044143320	323.242850191129	651.659022535476	816.190596020589	216.775936594751	593.396439669479	634.575812876853	90.469503521922	584.990139424762	718.926290836964	65.172023079588	654.086865720456	920.377318389723	36.306823411451	632.459928139951	911.931400209222	38.556446736385	413.286898537158	985.517142434334	36.277893975574	332.187533693368	1069.298675863860	96.696103063700	358.922221933476	1197.021846223602	45.293150785593	329.193725601826	832.272436705469	1110.339313510876	182.224816137889	790.285134680374	852.982186794032	211.013144384811	1279.705223106947	1171.525608225545	683.786216785317	1520.876202547615	1209.087636401748	595.260810276764	
90	16.594214285714	811.243578507521	105.679075855262	609.701598326574	822.340045089381	1016.342499308748	496.815484628529	978.138449065655	1430.278417277268	276.056385626342	1110.893022842575	1356.285182232753	411.670617409680	1071.304817378973	1437.254321936515	595.177831391494	993.214512445027	1493.078158246696	430.986277064928	1060.765182411071	930.451898190556	574.770414793109	1006.187049387582	960.456908548239	307.408373772391	1042.613418620192	716.872851019327	552.523192410851	942.699934072259	629.218173258307	629.139487772034	991.180111893863	557.645995213160	545.567998393680	965.533074267317	468.283652824123	557.759331634048	1069.314783658318	761.486466330422	344.281574480376	992.710120203160	632.628713191760	286.967391762343	1087.352520922011	565.841714336537	348.273663403614	1094.844906184593	494.276944175835	355.794954866967	1068.000967287986	421.185524714024	350.212732558612	979.554732990861	305.157261382719	301.938486289166	1033.630879267781	194.304899062582	370.949993990622	907.534121149705	395.079023987556	574.767752635982	811.530033654274	324.811273014819	650.136214208205	813.609316344504	217.792899069190	592.713688780390	630.942005638073	93.043586311106	584.641653833790	714.946797879227	66.696937199087	653.845733070070	915.887862376711	36.282440768826	632.378240421673	907.253094423342	38.781634578690	413.372040166529	980.818727165207	36.433505749903	332.329690654833	1064.771652345072	96.625070850585	359.029422395950	1192.392005468762	44.702570358141	329.162160297105	840.195208414265	1108.982030241760	175.296716429544	804.262603246838	850.430334369993	200.858591182394	1274.974534714577	1166.257153238520	682.150134814280	1519.672556853344	1191.018453027059	598.906497991668	
91	16.617857142857	807.786797318415	105.929472850919	609.685671929541	822.563486826298	1016.132654019343	490.868015975223	980.873484163526	1430.710349978235	273.069246023827	1112.067332735244	1356.232684072707	409.860043825810	1070.742352889713	1436.625302968561	593.242042205986	994.433015878680	1493.134344994329	428.405333720857	1060.340208771444	930.376450515620	570.959195909222	1008.088861415097	960.425438927167	303.165379004961	1042.314959176943	716.865548526648	549.535077245460	941.853528175966	629.757546338722	626.064305054098	990.966656891473	557.544046212264	543.336525978900	965.236615996243	467.809436331196	556.155609015308	1070.673119789587	761.018170654188	341.132617193592	994.177489508523	631.857578458763	284.243521575873	1088.336077948149	565.122472746977	346.402863278052	1095.821871840221	493.209584462849	354.122789362932	1067.865068978438	420.100785656440	349.043941110966	978.258961960827	304.884690375736	301.208119472910	1030.656493430186	193.850231488668	370.832844565926	906.308605732692	395.220217734205	573.332443337784	809.359682043755	326.159910380795	648.710351021204	810.976778537017	218.589298300548	592.162400192072	627.237404205513	95.293798171991	584.438953336582	710.930720500526	67.926376537651	653.701538079246	911.428935413296	36.292659886287	632.326667721818	902.579087431359	39.057053384956	413.476299227447	976.125725403723	36.617037051742	332.504391679545	1060.269883121526	96.560533086786	359.172995074932	1187.762618469091	44.075725238022	329.142066719942	848.710505137778	1107.229186567174	168.702671831206	819.369517169720	847.599922578592	191.024215656562	1269.176042086816	1159.806644419655	680.811963701703	1516.805772556206	1169.678196351756	603.925586469093	
92	16.641500000000	804.280787511108	106.026725639131	609.800776114409	822.648521172451	1015.584197820853	484.851051689528	983.566261652029	1430.931148934551	270.301972009805	1113.095902567668	1355.852758594212	408.271093901283	1069.985691081088	1435.534617265132	591.555677172562	995.564120596709	1492.888917835259	426.089609261710	1059.732894367002	930.094232740684	567.166713606387	1009.939318359058	960.077556359827	298.954681710759	1042.034337672098	716.599633155384	546.650626326502	941.030102440511	629.977451369775	623.025803143770	990.902586970304	557.150842390100	541.221211090460	965.163502759034	466.947433043429	554.766950260191	1072.271317886165	760.500473543514	338.244323174712	996.257977544508	630.869546692852	281.695863085374	1090.004987437671	564.350793558531	344.811403628811	1097.580323373062	491.996911298480	352.696035130243	1068.357565800820	418.823854544629	348.083879660633	977.436275350644	304.591721504043	300.590918139857	1027.890439366200	193.308378020129	370.815957272896	905.232668186878	395.022134270750	572.072671518722	807.256346526092	327.268968557213	647.400152691947	808.355544030220	219.149652448346	591.775558572535	623.478736292236	97.289164099449	584.407804933404	706.877556350534	68.892735494384	653.675355716275	906.980538189789	36.326019930394	632.316272265989	897.920646326458	39.373481333679	413.591956228060	971.450300106311	36.820707048543	332.701648036285	1055.796645256352	96.503673388021	359.348207196314	1183.143221439419	43.435696396327	329.133359940881	857.939147806805	1105.039291963937	162.422060131099	835.736629893074	844.483034717526	181.554540234726	1262.211003358035	1152.145168219578	679.689647434869	1511.762383752964	1145.082420607779	610.200480021099	
93	16.665142857143	800.753650400325	105.995596829082	610.061412738483	822.589993940957	1014.646449345444	478.760936561785	986.208179258855	1430.890438565785	267.729119601053	1113.971478815080	1355.094033973244	406.873499043280	1069.023316542203	1433.926253860646	590.088749808244	996.599342856368	1492.285590199061	424.022740676631	1058.943931640407	929.557593246706	563.392401793887	1011.743076621513	959.365424358079	294.775854725049	1041.885610707085	716.035015292732	543.872520109417	940.406399033674	629.780916126339	620.028500394394	991.221405760936	556.394301321302	539.229406417813	965.571521793118	465.599699722839	553.624312572702	1074.109020004021	759.890866567719	335.598514486487	998.946802266797	629.632343152861	279.315530281987	1092.349357807939	563.494274722413	343.497691139334	1100.090945597288	490.611256844373	351.531274892111	1069.463815128174	417.328625273933	347.330504411734	977.086980879773	304.250760001715	300.063586928778	1025.322846521146	192.659951931908	370.885349568288	904.530504795319	394.398658485270	571.003377026156	805.399372673210	328.144552628790	646.209330482590	805.858222586871	219.488534678094	591.571421065312	619.720173086152	99.194601302026	584.556026648551	702.802567985134	69.701022779130	653.776043113065	902.503954788324	36.364887846612	632.355745442367	893.283196703821	39.716225083711	413.709249399009	966.798360223748	37.032866572892	332.907890944456	1051.348031365956	96.453372227372	359.546973166330	1178.537912732533	42.806943356663	329.134260573197	868.010177564680	1102.396210219058	156.422549028498	853.496784433788	841.102392353333	172.504578542245	1253.957579811272	1143.304330908560	678.716066103056	1503.986453067294	1117.411624523977	617.557068747067	
94	16.688785714286	797.258194387306	105.897304843633	610.467589033098	822.379859526278	1013.289503412853	472.606032929623	988.795490444999	1430.547389239705	265.323258489752	1114.689533119006	1353.926294858839	405.642836711008	1067.839405325861	1431.776893296763	588.811232807047	997.532223258276	1491.288363271332	422.179339095927	1057.977340852008	928.727342354359	559.646224445477	1013.499103332104	958.268087101116	290.637318373323	1042.014082934105	715.158753979976	541.189114073916	940.216515770916	629.084216142492	617.070995233973	992.214619708865	555.225702648360	537.349882436416	966.780710437335	463.692484190262	552.732116091101	1076.151231515258	759.143243505112	333.155961254630	1002.163144204062	628.129793140457	277.082411674698	1095.273945709266	562.520637979101	342.440560075266	1103.230291631395	489.036489768349	350.628368752167	1071.092176324768	415.606240203459	346.766889394536	977.152026571797	303.833330609020	299.598058014174	1022.917812747440	191.894023582212	371.019516394858	904.487149272731	393.286490016163	570.117098697376	804.032747726931	328.829271097797	645.122905993305	803.643854938904	219.662451201370	591.546528127019	616.059728384677	101.280770300522	584.867355086408	698.741518391809	70.540540734857	653.994839542404	897.941927774039	36.385208918071	632.449031807741	888.665748956064	40.065868914998	413.816656499448	962.169301803157	37.238689712415	333.107045977374	1046.913458452809	96.406377486972	359.758339059692	1173.945561179217	42.213230332676	329.141977758074	879.043173981441	1099.321313085092	150.666022255176	872.771307715907	837.523652794945	163.936065125208	1244.268698585268	1133.387417512777	677.844808379081	1492.912344722264	1087.031615591650	625.769559407201	
